<?xml version="1.0" encoding="utf-8" standalone="no"?>
<!DOCTYPE svg PUBLIC "-//W3C//DTD SVG 1.1//EN"
  "http://www.w3.org/Graphics/SVG/1.1/DTD/svg11.dtd">
<svg xmlns:xlink="http://www.w3.org/1999/xlink" width="864pt" height="432pt" viewBox="0 0 864 432" xmlns="http://www.w3.org/2000/svg" version="1.1">
 <metadata>
  <rdf:RDF xmlns:dc="http://purl.org/dc/elements/1.1/" xmlns:cc="http://creativecommons.org/ns#" xmlns:rdf="http://www.w3.org/1999/02/22-rdf-syntax-ns#">
   <cc:Work>
    <dc:type rdf:resource="http://purl.org/dc/dcmitype/StillImage"/>
    <dc:date>2022-01-23T22:10:14.498083</dc:date>
    <dc:format>image/svg+xml</dc:format>
    <dc:creator>
     <cc:Agent>
      <dc:title>Matplotlib v3.5.1, https://matplotlib.org/</dc:title>
     </cc:Agent>
    </dc:creator>
   </cc:Work>
  </rdf:RDF>
 </metadata>
 <defs>
  <style type="text/css">*{stroke-linejoin: round; stroke-linecap: butt}</style>
 </defs>
 <g id="figure_1">
  <g id="patch_1">
   <path d="M 0 432 
L 864 432 
L 864 0 
L 0 0 
z
" style="fill: #ffffff"/>
  </g>
  <g id="axes_1">
   <g id="patch_2">
    <path d="M 108 384.48 
L 777.6 384.48 
L 777.6 51.84 
L 108 51.84 
z
" style="fill: #ffffff"/>
   </g>
   <g id="matplotlib.axis_1">
    <g id="xtick_1">
     <g id="line2d_1">
      <path d="M 108 384.48 
L 108 51.84 
" clip-path="url(#pdfee1e8a38)" style="fill: none; stroke: #b0b0b0; stroke-width: 0.8; stroke-linecap: square"/>
     </g>
     <g id="line2d_2">
      <defs>
       <path id="ma4ad359ef2" d="M 0 0 
L 0 3.5 
" style="stroke: #000000; stroke-width: 0.8"/>
      </defs>
      <g>
       <use xlink:href="#ma4ad359ef2" x="108" y="384.48" style="stroke: #000000; stroke-width: 0.8"/>
      </g>
     </g>
     <g id="text_1">
      <!-- −3.0 -->
      <g transform="translate(95.858594 399.078438)scale(0.1 -0.1)">
       <defs>
        <path id="DejaVuSans-2212" d="M 678 2272 
L 4684 2272 
L 4684 1741 
L 678 1741 
L 678 2272 
z
" transform="scale(0.015625)"/>
        <path id="DejaVuSans-33" d="M 2597 2516 
Q 3050 2419 3304 2112 
Q 3559 1806 3559 1356 
Q 3559 666 3084 287 
Q 2609 -91 1734 -91 
Q 1441 -91 1130 -33 
Q 819 25 488 141 
L 488 750 
Q 750 597 1062 519 
Q 1375 441 1716 441 
Q 2309 441 2620 675 
Q 2931 909 2931 1356 
Q 2931 1769 2642 2001 
Q 2353 2234 1838 2234 
L 1294 2234 
L 1294 2753 
L 1863 2753 
Q 2328 2753 2575 2939 
Q 2822 3125 2822 3475 
Q 2822 3834 2567 4026 
Q 2313 4219 1838 4219 
Q 1578 4219 1281 4162 
Q 984 4106 628 3988 
L 628 4550 
Q 988 4650 1302 4700 
Q 1616 4750 1894 4750 
Q 2613 4750 3031 4423 
Q 3450 4097 3450 3541 
Q 3450 3153 3228 2886 
Q 3006 2619 2597 2516 
z
" transform="scale(0.015625)"/>
        <path id="DejaVuSans-2e" d="M 684 794 
L 1344 794 
L 1344 0 
L 684 0 
L 684 794 
z
" transform="scale(0.015625)"/>
        <path id="DejaVuSans-30" d="M 2034 4250 
Q 1547 4250 1301 3770 
Q 1056 3291 1056 2328 
Q 1056 1369 1301 889 
Q 1547 409 2034 409 
Q 2525 409 2770 889 
Q 3016 1369 3016 2328 
Q 3016 3291 2770 3770 
Q 2525 4250 2034 4250 
z
M 2034 4750 
Q 2819 4750 3233 4129 
Q 3647 3509 3647 2328 
Q 3647 1150 3233 529 
Q 2819 -91 2034 -91 
Q 1250 -91 836 529 
Q 422 1150 422 2328 
Q 422 3509 836 4129 
Q 1250 4750 2034 4750 
z
" transform="scale(0.015625)"/>
       </defs>
       <use xlink:href="#DejaVuSans-2212"/>
       <use xlink:href="#DejaVuSans-33" x="83.789062"/>
       <use xlink:href="#DejaVuSans-2e" x="147.412109"/>
       <use xlink:href="#DejaVuSans-30" x="179.199219"/>
      </g>
     </g>
    </g>
    <g id="xtick_2">
     <g id="line2d_3">
      <path d="M 163.8 384.48 
L 163.8 51.84 
" clip-path="url(#pdfee1e8a38)" style="fill: none; stroke: #b0b0b0; stroke-width: 0.8; stroke-linecap: square"/>
     </g>
     <g id="line2d_4">
      <g>
       <use xlink:href="#ma4ad359ef2" x="163.8" y="384.48" style="stroke: #000000; stroke-width: 0.8"/>
      </g>
     </g>
     <g id="text_2">
      <!-- −2.5 -->
      <g transform="translate(151.658594 399.078438)scale(0.1 -0.1)">
       <defs>
        <path id="DejaVuSans-32" d="M 1228 531 
L 3431 531 
L 3431 0 
L 469 0 
L 469 531 
Q 828 903 1448 1529 
Q 2069 2156 2228 2338 
Q 2531 2678 2651 2914 
Q 2772 3150 2772 3378 
Q 2772 3750 2511 3984 
Q 2250 4219 1831 4219 
Q 1534 4219 1204 4116 
Q 875 4013 500 3803 
L 500 4441 
Q 881 4594 1212 4672 
Q 1544 4750 1819 4750 
Q 2544 4750 2975 4387 
Q 3406 4025 3406 3419 
Q 3406 3131 3298 2873 
Q 3191 2616 2906 2266 
Q 2828 2175 2409 1742 
Q 1991 1309 1228 531 
z
" transform="scale(0.015625)"/>
        <path id="DejaVuSans-35" d="M 691 4666 
L 3169 4666 
L 3169 4134 
L 1269 4134 
L 1269 2991 
Q 1406 3038 1543 3061 
Q 1681 3084 1819 3084 
Q 2600 3084 3056 2656 
Q 3513 2228 3513 1497 
Q 3513 744 3044 326 
Q 2575 -91 1722 -91 
Q 1428 -91 1123 -41 
Q 819 9 494 109 
L 494 744 
Q 775 591 1075 516 
Q 1375 441 1709 441 
Q 2250 441 2565 725 
Q 2881 1009 2881 1497 
Q 2881 1984 2565 2268 
Q 2250 2553 1709 2553 
Q 1456 2553 1204 2497 
Q 953 2441 691 2322 
L 691 4666 
z
" transform="scale(0.015625)"/>
       </defs>
       <use xlink:href="#DejaVuSans-2212"/>
       <use xlink:href="#DejaVuSans-32" x="83.789062"/>
       <use xlink:href="#DejaVuSans-2e" x="147.412109"/>
       <use xlink:href="#DejaVuSans-35" x="179.199219"/>
      </g>
     </g>
    </g>
    <g id="xtick_3">
     <g id="line2d_5">
      <path d="M 219.6 384.48 
L 219.6 51.84 
" clip-path="url(#pdfee1e8a38)" style="fill: none; stroke: #b0b0b0; stroke-width: 0.8; stroke-linecap: square"/>
     </g>
     <g id="line2d_6">
      <g>
       <use xlink:href="#ma4ad359ef2" x="219.6" y="384.48" style="stroke: #000000; stroke-width: 0.8"/>
      </g>
     </g>
     <g id="text_3">
      <!-- −2.0 -->
      <g transform="translate(207.458594 399.078438)scale(0.1 -0.1)">
       <use xlink:href="#DejaVuSans-2212"/>
       <use xlink:href="#DejaVuSans-32" x="83.789062"/>
       <use xlink:href="#DejaVuSans-2e" x="147.412109"/>
       <use xlink:href="#DejaVuSans-30" x="179.199219"/>
      </g>
     </g>
    </g>
    <g id="xtick_4">
     <g id="line2d_7">
      <path d="M 275.4 384.48 
L 275.4 51.84 
" clip-path="url(#pdfee1e8a38)" style="fill: none; stroke: #b0b0b0; stroke-width: 0.8; stroke-linecap: square"/>
     </g>
     <g id="line2d_8">
      <g>
       <use xlink:href="#ma4ad359ef2" x="275.4" y="384.48" style="stroke: #000000; stroke-width: 0.8"/>
      </g>
     </g>
     <g id="text_4">
      <!-- −1.5 -->
      <g transform="translate(263.258594 399.078438)scale(0.1 -0.1)">
       <defs>
        <path id="DejaVuSans-31" d="M 794 531 
L 1825 531 
L 1825 4091 
L 703 3866 
L 703 4441 
L 1819 4666 
L 2450 4666 
L 2450 531 
L 3481 531 
L 3481 0 
L 794 0 
L 794 531 
z
" transform="scale(0.015625)"/>
       </defs>
       <use xlink:href="#DejaVuSans-2212"/>
       <use xlink:href="#DejaVuSans-31" x="83.789062"/>
       <use xlink:href="#DejaVuSans-2e" x="147.412109"/>
       <use xlink:href="#DejaVuSans-35" x="179.199219"/>
      </g>
     </g>
    </g>
    <g id="xtick_5">
     <g id="line2d_9">
      <path d="M 331.2 384.48 
L 331.2 51.84 
" clip-path="url(#pdfee1e8a38)" style="fill: none; stroke: #b0b0b0; stroke-width: 0.8; stroke-linecap: square"/>
     </g>
     <g id="line2d_10">
      <g>
       <use xlink:href="#ma4ad359ef2" x="331.2" y="384.48" style="stroke: #000000; stroke-width: 0.8"/>
      </g>
     </g>
     <g id="text_5">
      <!-- −1.0 -->
      <g transform="translate(319.058594 399.078438)scale(0.1 -0.1)">
       <use xlink:href="#DejaVuSans-2212"/>
       <use xlink:href="#DejaVuSans-31" x="83.789062"/>
       <use xlink:href="#DejaVuSans-2e" x="147.412109"/>
       <use xlink:href="#DejaVuSans-30" x="179.199219"/>
      </g>
     </g>
    </g>
    <g id="xtick_6">
     <g id="line2d_11">
      <path d="M 387 384.48 
L 387 51.84 
" clip-path="url(#pdfee1e8a38)" style="fill: none; stroke: #b0b0b0; stroke-width: 0.8; stroke-linecap: square"/>
     </g>
     <g id="line2d_12">
      <g>
       <use xlink:href="#ma4ad359ef2" x="387" y="384.48" style="stroke: #000000; stroke-width: 0.8"/>
      </g>
     </g>
     <g id="text_6">
      <!-- −0.5 -->
      <g transform="translate(374.858594 399.078438)scale(0.1 -0.1)">
       <use xlink:href="#DejaVuSans-2212"/>
       <use xlink:href="#DejaVuSans-30" x="83.789062"/>
       <use xlink:href="#DejaVuSans-2e" x="147.412109"/>
       <use xlink:href="#DejaVuSans-35" x="179.199219"/>
      </g>
     </g>
    </g>
    <g id="xtick_7">
     <g id="line2d_13">
      <path d="M 442.8 384.48 
L 442.8 51.84 
" clip-path="url(#pdfee1e8a38)" style="fill: none; stroke: #b0b0b0; stroke-width: 0.8; stroke-linecap: square"/>
     </g>
     <g id="line2d_14">
      <g>
       <use xlink:href="#ma4ad359ef2" x="442.8" y="384.48" style="stroke: #000000; stroke-width: 0.8"/>
      </g>
     </g>
     <g id="text_7">
      <!-- 0.0 -->
      <g transform="translate(434.848437 399.078438)scale(0.1 -0.1)">
       <use xlink:href="#DejaVuSans-30"/>
       <use xlink:href="#DejaVuSans-2e" x="63.623047"/>
       <use xlink:href="#DejaVuSans-30" x="95.410156"/>
      </g>
     </g>
    </g>
    <g id="xtick_8">
     <g id="line2d_15">
      <path d="M 498.6 384.48 
L 498.6 51.84 
" clip-path="url(#pdfee1e8a38)" style="fill: none; stroke: #b0b0b0; stroke-width: 0.8; stroke-linecap: square"/>
     </g>
     <g id="line2d_16">
      <g>
       <use xlink:href="#ma4ad359ef2" x="498.6" y="384.48" style="stroke: #000000; stroke-width: 0.8"/>
      </g>
     </g>
     <g id="text_8">
      <!-- 0.5 -->
      <g transform="translate(490.648438 399.078438)scale(0.1 -0.1)">
       <use xlink:href="#DejaVuSans-30"/>
       <use xlink:href="#DejaVuSans-2e" x="63.623047"/>
       <use xlink:href="#DejaVuSans-35" x="95.410156"/>
      </g>
     </g>
    </g>
    <g id="xtick_9">
     <g id="line2d_17">
      <path d="M 554.4 384.48 
L 554.4 51.84 
" clip-path="url(#pdfee1e8a38)" style="fill: none; stroke: #b0b0b0; stroke-width: 0.8; stroke-linecap: square"/>
     </g>
     <g id="line2d_18">
      <g>
       <use xlink:href="#ma4ad359ef2" x="554.4" y="384.48" style="stroke: #000000; stroke-width: 0.8"/>
      </g>
     </g>
     <g id="text_9">
      <!-- 1.0 -->
      <g transform="translate(546.448437 399.078438)scale(0.1 -0.1)">
       <use xlink:href="#DejaVuSans-31"/>
       <use xlink:href="#DejaVuSans-2e" x="63.623047"/>
       <use xlink:href="#DejaVuSans-30" x="95.410156"/>
      </g>
     </g>
    </g>
    <g id="xtick_10">
     <g id="line2d_19">
      <path d="M 610.2 384.48 
L 610.2 51.84 
" clip-path="url(#pdfee1e8a38)" style="fill: none; stroke: #b0b0b0; stroke-width: 0.8; stroke-linecap: square"/>
     </g>
     <g id="line2d_20">
      <g>
       <use xlink:href="#ma4ad359ef2" x="610.2" y="384.48" style="stroke: #000000; stroke-width: 0.8"/>
      </g>
     </g>
     <g id="text_10">
      <!-- 1.5 -->
      <g transform="translate(602.248438 399.078438)scale(0.1 -0.1)">
       <use xlink:href="#DejaVuSans-31"/>
       <use xlink:href="#DejaVuSans-2e" x="63.623047"/>
       <use xlink:href="#DejaVuSans-35" x="95.410156"/>
      </g>
     </g>
    </g>
    <g id="xtick_11">
     <g id="line2d_21">
      <path d="M 666 384.48 
L 666 51.84 
" clip-path="url(#pdfee1e8a38)" style="fill: none; stroke: #b0b0b0; stroke-width: 0.8; stroke-linecap: square"/>
     </g>
     <g id="line2d_22">
      <g>
       <use xlink:href="#ma4ad359ef2" x="666" y="384.48" style="stroke: #000000; stroke-width: 0.8"/>
      </g>
     </g>
     <g id="text_11">
      <!-- 2.0 -->
      <g transform="translate(658.048437 399.078438)scale(0.1 -0.1)">
       <use xlink:href="#DejaVuSans-32"/>
       <use xlink:href="#DejaVuSans-2e" x="63.623047"/>
       <use xlink:href="#DejaVuSans-30" x="95.410156"/>
      </g>
     </g>
    </g>
    <g id="xtick_12">
     <g id="line2d_23">
      <path d="M 721.8 384.48 
L 721.8 51.84 
" clip-path="url(#pdfee1e8a38)" style="fill: none; stroke: #b0b0b0; stroke-width: 0.8; stroke-linecap: square"/>
     </g>
     <g id="line2d_24">
      <g>
       <use xlink:href="#ma4ad359ef2" x="721.8" y="384.48" style="stroke: #000000; stroke-width: 0.8"/>
      </g>
     </g>
     <g id="text_12">
      <!-- 2.5 -->
      <g transform="translate(713.848437 399.078438)scale(0.1 -0.1)">
       <use xlink:href="#DejaVuSans-32"/>
       <use xlink:href="#DejaVuSans-2e" x="63.623047"/>
       <use xlink:href="#DejaVuSans-35" x="95.410156"/>
      </g>
     </g>
    </g>
    <g id="xtick_13">
     <g id="line2d_25">
      <path d="M 777.6 384.48 
L 777.6 51.84 
" clip-path="url(#pdfee1e8a38)" style="fill: none; stroke: #b0b0b0; stroke-width: 0.8; stroke-linecap: square"/>
     </g>
     <g id="line2d_26">
      <g>
       <use xlink:href="#ma4ad359ef2" x="777.6" y="384.48" style="stroke: #000000; stroke-width: 0.8"/>
      </g>
     </g>
     <g id="text_13">
      <!-- 3.0 -->
      <g transform="translate(769.648437 399.078438)scale(0.1 -0.1)">
       <use xlink:href="#DejaVuSans-33"/>
       <use xlink:href="#DejaVuSans-2e" x="63.623047"/>
       <use xlink:href="#DejaVuSans-30" x="95.410156"/>
      </g>
     </g>
    </g>
   </g>
   <g id="matplotlib.axis_2">
    <g id="ytick_1">
     <g id="line2d_27">
      <path d="M 108 351.216 
L 777.6 351.216 
" clip-path="url(#pdfee1e8a38)" style="fill: none; stroke: #b0b0b0; stroke-width: 0.8; stroke-linecap: square"/>
     </g>
     <g id="line2d_28">
      <defs>
       <path id="mafe58aa04b" d="M 0 0 
L -3.5 0 
" style="stroke: #000000; stroke-width: 0.8"/>
      </defs>
      <g>
       <use xlink:href="#mafe58aa04b" x="108" y="351.216" style="stroke: #000000; stroke-width: 0.8"/>
      </g>
     </g>
     <g id="text_14">
      <!-- −40 -->
      <g transform="translate(79.895313 355.015219)scale(0.1 -0.1)">
       <defs>
        <path id="DejaVuSans-34" d="M 2419 4116 
L 825 1625 
L 2419 1625 
L 2419 4116 
z
M 2253 4666 
L 3047 4666 
L 3047 1625 
L 3713 1625 
L 3713 1100 
L 3047 1100 
L 3047 0 
L 2419 0 
L 2419 1100 
L 313 1100 
L 313 1709 
L 2253 4666 
z
" transform="scale(0.015625)"/>
       </defs>
       <use xlink:href="#DejaVuSans-2212"/>
       <use xlink:href="#DejaVuSans-34" x="83.789062"/>
       <use xlink:href="#DejaVuSans-30" x="147.412109"/>
      </g>
     </g>
    </g>
    <g id="ytick_2">
     <g id="line2d_29">
      <path d="M 108 284.688 
L 777.6 284.688 
" clip-path="url(#pdfee1e8a38)" style="fill: none; stroke: #b0b0b0; stroke-width: 0.8; stroke-linecap: square"/>
     </g>
     <g id="line2d_30">
      <g>
       <use xlink:href="#mafe58aa04b" x="108" y="284.688" style="stroke: #000000; stroke-width: 0.8"/>
      </g>
     </g>
     <g id="text_15">
      <!-- −20 -->
      <g transform="translate(79.895313 288.487219)scale(0.1 -0.1)">
       <use xlink:href="#DejaVuSans-2212"/>
       <use xlink:href="#DejaVuSans-32" x="83.789062"/>
       <use xlink:href="#DejaVuSans-30" x="147.412109"/>
      </g>
     </g>
    </g>
    <g id="ytick_3">
     <g id="line2d_31">
      <path d="M 108 218.16 
L 777.6 218.16 
" clip-path="url(#pdfee1e8a38)" style="fill: none; stroke: #b0b0b0; stroke-width: 0.8; stroke-linecap: square"/>
     </g>
     <g id="line2d_32">
      <g>
       <use xlink:href="#mafe58aa04b" x="108" y="218.16" style="stroke: #000000; stroke-width: 0.8"/>
      </g>
     </g>
     <g id="text_16">
      <!-- 0 -->
      <g transform="translate(94.6375 221.959219)scale(0.1 -0.1)">
       <use xlink:href="#DejaVuSans-30"/>
      </g>
     </g>
    </g>
    <g id="ytick_4">
     <g id="line2d_33">
      <path d="M 108 151.632 
L 777.6 151.632 
" clip-path="url(#pdfee1e8a38)" style="fill: none; stroke: #b0b0b0; stroke-width: 0.8; stroke-linecap: square"/>
     </g>
     <g id="line2d_34">
      <g>
       <use xlink:href="#mafe58aa04b" x="108" y="151.632" style="stroke: #000000; stroke-width: 0.8"/>
      </g>
     </g>
     <g id="text_17">
      <!-- 20 -->
      <g transform="translate(88.275 155.431219)scale(0.1 -0.1)">
       <use xlink:href="#DejaVuSans-32"/>
       <use xlink:href="#DejaVuSans-30" x="63.623047"/>
      </g>
     </g>
    </g>
    <g id="ytick_5">
     <g id="line2d_35">
      <path d="M 108 85.104 
L 777.6 85.104 
" clip-path="url(#pdfee1e8a38)" style="fill: none; stroke: #b0b0b0; stroke-width: 0.8; stroke-linecap: square"/>
     </g>
     <g id="line2d_36">
      <g>
       <use xlink:href="#mafe58aa04b" x="108" y="85.104" style="stroke: #000000; stroke-width: 0.8"/>
      </g>
     </g>
     <g id="text_18">
      <!-- 40 -->
      <g transform="translate(88.275 88.903219)scale(0.1 -0.1)">
       <use xlink:href="#DejaVuSans-34"/>
       <use xlink:href="#DejaVuSans-30" x="63.623047"/>
      </g>
     </g>
    </g>
   </g>
   <g id="line2d_37">
    <path d="M 108 238.1184 
L 777.6 198.2016 
L 777.6 198.2016 
" clip-path="url(#pdfee1e8a38)" style="fill: none; stroke: #1f77b4; stroke-width: 1.5; stroke-linecap: square"/>
   </g>
   <g id="line2d_38">
    <path d="M 108 105.0624 
L 119.116406 112.882556 
L 130.232813 120.438676 
L 141.349219 127.730758 
L 152.465625 134.758804 
L 163.582031 141.522812 
L 174.698438 148.022783 
L 185.814844 154.258717 
L 196.93125 160.230614 
L 208.047656 165.938474 
L 219.164063 171.382297 
L 229.626563 176.264699 
L 240.089063 180.913213 
L 250.551563 185.327839 
L 261.014063 189.508578 
L 271.476562 193.45543 
L 281.939062 197.168394 
L 292.401563 200.64747 
L 302.864063 203.892659 
L 313.326563 206.903961 
L 323.789062 209.681375 
L 334.251563 212.224902 
L 344.714063 214.534541 
L 355.176563 216.610292 
L 365.639063 218.452156 
L 376.101562 220.060133 
L 386.564063 221.434222 
L 397.026563 222.574424 
L 407.489062 223.480738 
L 417.951563 224.153164 
L 428.414062 224.591703 
L 438.876563 224.796355 
L 449.339063 224.767119 
L 459.801562 224.503995 
L 470.264063 224.006984 
L 480.726562 223.276086 
L 491.189062 222.3113 
L 501.651563 221.112627 
L 512.114063 219.680066 
L 522.576563 218.013617 
L 533.039062 216.113281 
L 543.501562 213.979058 
L 553.964062 211.610947 
L 564.426563 209.008949 
L 574.889063 206.173063 
L 585.351562 203.103289 
L 595.814062 199.799628 
L 606.276562 196.26208 
L 616.739063 192.490644 
L 627.201563 188.48532 
L 637.664062 184.246109 
L 648.126562 179.773011 
L 658.589062 175.066025 
L 669.051563 170.125152 
L 679.514063 164.950391 
L 690.630469 159.195936 
L 701.746875 153.177444 
L 712.863281 146.894915 
L 723.979687 140.348349 
L 735.096094 133.537746 
L 746.2125 126.463106 
L 757.328906 119.124429 
L 768.445312 111.521715 
L 777.6 105.0624 
L 777.6 105.0624 
" clip-path="url(#pdfee1e8a38)" style="fill: none; stroke: #ff7f0e; stroke-width: 1.5; stroke-linecap: square"/>
   </g>
   <g id="line2d_39">
    <path d="M 191.231169 433 
L 196.277344 416.826181 
L 201.508594 400.821546 
L 206.739844 385.575447 
L 211.971094 371.071439 
L 217.202344 357.293075 
L 221.779688 345.819335 
L 226.357031 334.877559 
L 230.934375 324.45673 
L 235.511719 314.545831 
L 240.089063 305.133845 
L 244.666406 296.209755 
L 249.24375 287.762545 
L 253.821094 279.781196 
L 258.398438 272.254693 
L 262.975781 265.172017 
L 267.553125 258.522153 
L 272.130469 252.294083 
L 276.707813 246.47679 
L 281.285156 241.059257 
L 285.8625 236.030467 
L 290.439844 231.379403 
L 294.363281 227.685065 
L 298.286719 224.253207 
L 302.210156 221.076893 
L 306.133594 218.149185 
L 310.057031 215.463144 
L 313.980469 213.011832 
L 317.903906 210.788313 
L 321.827344 208.785648 
L 326.404688 206.719084 
L 330.982031 204.932667 
L 335.559375 203.41538 
L 340.136719 202.156206 
L 344.714063 201.144128 
L 349.291406 200.368128 
L 353.86875 199.81719 
L 358.446094 199.480297 
L 363.023438 199.346432 
L 368.254688 199.427915 
L 373.485938 199.743743 
L 378.717188 200.277471 
L 384.602344 201.117895 
L 390.4875 202.189869 
L 397.026563 203.624043 
L 403.565625 205.283054 
L 410.758594 207.329318 
L 419.259375 209.989812 
L 429.067969 213.297939 
L 444.761719 218.861518 
L 461.109375 224.591335 
L 470.917969 227.791541 
L 478.764844 230.133164 
L 485.957812 232.057534 
L 492.496875 233.585497 
L 498.382031 234.752867 
L 504.267187 235.699093 
L 509.498438 236.335603 
L 514.729687 236.762436 
L 519.960938 236.963147 
L 525.192188 236.921292 
L 529.769531 236.67276 
L 534.346875 236.214904 
L 538.924219 235.536709 
L 543.501562 234.627156 
L 548.078906 233.475229 
L 552.65625 232.069911 
L 557.233594 230.400184 
L 561.157031 228.750192 
L 565.080469 226.890908 
L 569.003906 224.815396 
L 572.927344 222.516717 
L 576.850781 219.987933 
L 580.774219 217.222107 
L 584.697656 214.212301 
L 588.621094 210.951577 
L 592.544531 207.432997 
L 596.467969 203.649623 
L 600.391406 199.594518 
L 604.314844 195.260743 
L 608.892187 189.84321 
L 613.469531 184.025917 
L 618.046875 177.797847 
L 622.624219 171.147983 
L 627.201563 164.065307 
L 631.778906 156.538804 
L 636.35625 148.557455 
L 640.933594 140.110245 
L 645.510937 131.186155 
L 650.088281 121.774169 
L 654.665625 111.86327 
L 659.242969 101.442441 
L 663.820312 90.500665 
L 668.397656 79.026925 
L 672.975 67.010203 
L 678.20625 52.5978 
L 683.4375 37.445361 
L 688.66875 21.536443 
L 693.9 4.8546 
L 695.679388 -1 
L 695.679388 -1 
" clip-path="url(#pdfee1e8a38)" style="fill: none; stroke: #2ca02c; stroke-width: 1.5; stroke-linecap: square"/>
   </g>
   <g id="line2d_40">
    <path d="M 223.252265 -1 
L 226.357031 25.799096 
L 229.626563 52.271188 
L 232.896094 77.017169 
L 236.165625 100.097921 
L 239.435156 121.573386 
L 242.704688 141.502566 
L 245.974219 159.943518 
L 249.24375 176.953364 
L 252.513281 192.58828 
L 255.128906 204.143415 
L 257.744531 214.881812 
L 260.360156 224.830934 
L 262.975781 234.017857 
L 265.591406 242.469273 
L 268.207031 250.211488 
L 270.822656 257.270422 
L 273.438281 263.671611 
L 276.053906 269.440203 
L 278.669531 274.600964 
L 281.285156 279.178271 
L 283.900781 283.196118 
L 285.8625 285.856575 
L 287.824219 288.225439 
L 289.785938 290.312408 
L 291.747656 292.127053 
L 293.709375 293.678828 
L 295.671094 294.97706 
L 297.632812 296.030958 
L 299.594531 296.849607 
L 301.55625 297.441972 
L 303.517969 297.816892 
L 305.479688 297.983089 
L 307.441406 297.949159 
L 309.403125 297.72358 
L 311.364844 297.314704 
L 313.980469 296.498618 
L 316.596094 295.390468 
L 319.211719 294.009044 
L 321.827344 292.372749 
L 324.442969 290.499604 
L 327.7125 287.851927 
L 330.982031 284.895289 
L 334.251563 281.662343 
L 338.175 277.462663 
L 342.752344 272.188419 
L 347.983594 265.765357 
L 353.86875 258.172169 
L 363.023438 245.93582 
L 375.447656 229.338249 
L 381.986719 220.961961 
L 387.871875 213.799023 
L 393.103125 207.812794 
L 397.680469 202.919768 
L 401.603906 199.011981 
L 405.527344 195.391153 
L 409.450781 192.076796 
L 413.374219 189.086473 
L 416.64375 186.853383 
L 419.913281 184.86419 
L 423.182813 183.12595 
L 426.452344 181.644781 
L 429.721875 180.425858 
L 432.991406 179.473415 
L 436.260938 178.790746 
L 439.530469 178.380204 
L 442.8 178.2432 
L 446.069531 178.380204 
L 449.339063 178.790746 
L 452.608594 179.473415 
L 455.878125 180.425858 
L 459.147656 181.644781 
L 462.417188 183.12595 
L 465.686719 184.86419 
L 468.95625 186.853383 
L 472.225781 189.086473 
L 475.495313 191.555461 
L 479.41875 194.816979 
L 483.342188 198.38803 
L 487.265625 202.249429 
L 491.842969 207.09305 
L 496.420313 212.266089 
L 501.651563 218.529334 
L 507.536719 225.94356 
L 514.729687 235.387419 
L 537.616406 265.765357 
L 542.847656 272.188419 
L 547.425 277.462663 
L 551.348438 281.662343 
L 555.271875 285.509753 
L 558.541406 288.407241 
L 561.810938 290.989124 
L 564.426563 292.804725 
L 567.042187 294.379006 
L 569.657812 295.693853 
L 572.273438 296.730763 
L 574.889063 297.470851 
L 576.850781 297.819549 
L 578.8125 297.98218 
L 580.774219 297.950348 
L 582.735937 297.715538 
L 584.697656 297.269111 
L 586.659375 296.602307 
L 588.621094 295.706244 
L 590.582813 294.571917 
L 592.544531 293.190199 
L 594.50625 291.551844 
L 596.467969 289.64748 
L 598.429688 287.467616 
L 600.391406 285.002637 
L 602.353125 282.242808 
L 604.314844 279.178271 
L 606.930469 274.600964 
L 609.546094 269.440203 
L 612.161719 263.671611 
L 614.777344 257.270422 
L 617.392969 250.211488 
L 620.008594 242.469273 
L 622.624219 234.017857 
L 625.239844 224.830934 
L 627.855469 214.881812 
L 630.471094 204.143415 
L 633.086719 192.58828 
L 635.702344 180.188561 
L 638.971875 163.458165 
L 642.241406 145.307973 
L 645.510937 125.681054 
L 648.780469 104.519536 
L 652.05 81.764606 
L 655.319531 57.356512 
L 658.589062 31.234557 
L 661.858594 3.337108 
L 662.347735 -1 
L 662.347735 -1 
" clip-path="url(#pdfee1e8a38)" style="fill: none; stroke: #d62728; stroke-width: 1.5; stroke-linecap: square"/>
   </g>
   <g id="line2d_41">
    <path d="M 209.725229 433 
L 211.971094 363.838837 
L 214.586719 289.585203 
L 217.202344 221.745279 
L 219.817969 160.02025 
L 222.433594 104.119095 
L 225.049219 53.758492 
L 227.664844 8.662731 
L 228.267589 -1 
M 302.814267 -1 
L 317.903906 105.742133 
L 323.135156 140.908064 
L 327.7125 170.255803 
L 331.635938 194.139397 
L 335.559375 216.693697 
L 338.828906 234.381288 
L 342.098438 250.993654 
L 345.367969 266.476018 
L 348.6375 280.782093 
L 351.253125 291.354172 
L 353.86875 301.133085 
L 356.484375 310.106174 
L 359.1 318.26385 
L 361.715625 325.599506 
L 364.33125 332.109426 
L 366.292969 336.449323 
L 368.254688 340.324791 
L 370.216406 343.737284 
L 372.178125 346.68907 
L 374.139844 349.183213 
L 376.101562 351.223545 
L 377.409375 352.333883 
L 378.717188 353.246089 
L 380.025 353.961843 
L 381.332813 354.482964 
L 382.640625 354.811406 
L 383.948438 354.949255 
L 385.25625 354.898729 
L 386.564063 354.66217 
L 387.871875 354.242047 
L 389.179688 353.640949 
L 390.4875 352.861584 
L 392.449219 351.364493 
L 394.410938 349.482682 
L 396.372656 347.226706 
L 398.334375 344.607646 
L 400.296094 341.637092 
L 402.257812 338.327118 
L 404.873438 333.407571 
L 407.489062 327.937894 
L 410.104688 321.950337 
L 412.720313 315.478367 
L 415.989844 306.760007 
L 419.259375 297.408718 
L 423.182813 285.453354 
L 427.760156 270.656194 
L 432.991406 252.882338 
L 440.184375 227.508649 
L 453.2625 181.175768 
L 458.49375 163.501216 
L 463.071094 148.823407 
L 466.994531 136.99382 
L 470.264063 127.763418 
L 473.533594 119.1801 
L 476.803125 111.313214 
L 479.41875 105.580487 
L 482.034375 100.381924 
L 484.65 95.74913 
L 486.611719 92.66407 
L 488.573438 89.926533 
L 490.535156 87.548272 
L 492.496875 85.540541 
L 494.458594 83.914071 
L 496.420313 82.679051 
L 497.728125 82.077953 
L 499.035937 81.65783 
L 500.34375 81.421271 
L 501.651563 81.370745 
L 502.959375 81.508594 
L 504.267187 81.837036 
L 505.575 82.358157 
L 506.882812 83.073911 
L 508.190625 83.986117 
L 509.498438 85.096455 
L 511.460156 87.136787 
L 513.421875 89.63093 
L 515.383594 92.582716 
L 517.345312 95.995209 
L 519.307031 99.870677 
L 521.26875 104.210574 
L 523.230469 109.015518 
L 525.846094 116.144978 
L 528.461719 124.097654 
L 531.077344 132.86767 
L 533.692969 142.446193 
L 536.308594 152.821338 
L 538.924219 163.978084 
L 542.19375 178.99502 
L 545.463281 195.161478 
L 548.732813 212.426107 
L 552.65625 234.508136 
L 556.579687 257.963934 
L 561.157031 286.877546 
L 565.734375 317.213218 
L 571.619531 357.826703 
L 580.774219 422.957247 
L 582.180057 433 
M 657.601885 433 
L 659.242969 405.750557 
L 661.204687 370.475577 
L 663.820312 318.75598 
L 666.435938 261.425717 
L 669.051563 198.19955 
L 671.667187 128.784519 
L 674.282812 52.879846 
L 676.009994 -1 
L 676.009994 -1 
" clip-path="url(#pdfee1e8a38)" style="fill: none; stroke: #9467bd; stroke-width: 1.5; stroke-linecap: square"/>
   </g>
   <g id="patch_3">
    <path d="M 108 384.48 
L 108 51.84 
" style="fill: none; stroke: #000000; stroke-width: 0.8; stroke-linejoin: miter; stroke-linecap: square"/>
   </g>
   <g id="patch_4">
    <path d="M 777.6 384.48 
L 777.6 51.84 
" style="fill: none; stroke: #000000; stroke-width: 0.8; stroke-linejoin: miter; stroke-linecap: square"/>
   </g>
   <g id="patch_5">
    <path d="M 108 384.48 
L 777.6 384.48 
" style="fill: none; stroke: #000000; stroke-width: 0.8; stroke-linejoin: miter; stroke-linecap: square"/>
   </g>
   <g id="patch_6">
    <path d="M 108 51.84 
L 777.6 51.84 
" style="fill: none; stroke: #000000; stroke-width: 0.8; stroke-linejoin: miter; stroke-linecap: square"/>
   </g>
   <g id="legend_1">
    <g id="patch_7">
     <path d="M 712.6 379.48 
L 770.6 379.48 
Q 772.6 379.48 772.6 377.48 
L 772.6 305.089375 
Q 772.6 303.089375 770.6 303.089375 
L 712.6 303.089375 
Q 710.6 303.089375 710.6 305.089375 
L 710.6 377.48 
Q 710.6 379.48 712.6 379.48 
z
" style="fill: #ffffff; opacity: 0.8; stroke: #cccccc; stroke-linejoin: miter"/>
    </g>
    <g id="line2d_42">
     <path d="M 714.6 311.187813 
L 724.6 311.187813 
L 734.6 311.187813 
" style="fill: none; stroke: #1f77b4; stroke-width: 1.5; stroke-linecap: square"/>
    </g>
    <g id="text_19">
     <!-- $H_{1}(x)$ -->
     <g transform="translate(742.6 314.687813)scale(0.1 -0.1)">
      <defs>
       <path id="DejaVuSans-Oblique-48" d="M 1081 4666 
L 1716 4666 
L 1344 2753 
L 3634 2753 
L 4006 4666 
L 4641 4666 
L 3731 0 
L 3097 0 
L 3531 2222 
L 1241 2222 
L 806 0 
L 172 0 
L 1081 4666 
z
" transform="scale(0.015625)"/>
       <path id="DejaVuSans-28" d="M 1984 4856 
Q 1566 4138 1362 3434 
Q 1159 2731 1159 2009 
Q 1159 1288 1364 580 
Q 1569 -128 1984 -844 
L 1484 -844 
Q 1016 -109 783 600 
Q 550 1309 550 2009 
Q 550 2706 781 3412 
Q 1013 4119 1484 4856 
L 1984 4856 
z
" transform="scale(0.015625)"/>
       <path id="DejaVuSans-Oblique-78" d="M 3841 3500 
L 2234 1784 
L 3219 0 
L 2559 0 
L 1819 1388 
L 531 0 
L -166 0 
L 1556 1844 
L 641 3500 
L 1300 3500 
L 1972 2234 
L 3144 3500 
L 3841 3500 
z
" transform="scale(0.015625)"/>
       <path id="DejaVuSans-29" d="M 513 4856 
L 1013 4856 
Q 1481 4119 1714 3412 
Q 1947 2706 1947 2009 
Q 1947 1309 1714 600 
Q 1481 -109 1013 -844 
L 513 -844 
Q 928 -128 1133 580 
Q 1338 1288 1338 2009 
Q 1338 2731 1133 3434 
Q 928 4138 513 4856 
z
" transform="scale(0.015625)"/>
      </defs>
      <use xlink:href="#DejaVuSans-Oblique-48" transform="translate(0 0.125)"/>
      <use xlink:href="#DejaVuSans-31" transform="translate(75.195312 -16.28125)scale(0.7)"/>
      <use xlink:href="#DejaVuSans-28" transform="translate(122.46582 0.125)"/>
      <use xlink:href="#DejaVuSans-Oblique-78" transform="translate(161.479492 0.125)"/>
      <use xlink:href="#DejaVuSans-29" transform="translate(220.65918 0.125)"/>
     </g>
    </g>
    <g id="line2d_43">
     <path d="M 714.6 325.865937 
L 724.6 325.865937 
L 734.6 325.865937 
" style="fill: none; stroke: #ff7f0e; stroke-width: 1.5; stroke-linecap: square"/>
    </g>
    <g id="text_20">
     <!-- $H_{2}(x)$ -->
     <g transform="translate(742.6 329.365937)scale(0.1 -0.1)">
      <use xlink:href="#DejaVuSans-Oblique-48" transform="translate(0 0.125)"/>
      <use xlink:href="#DejaVuSans-32" transform="translate(75.195312 -16.28125)scale(0.7)"/>
      <use xlink:href="#DejaVuSans-28" transform="translate(122.46582 0.125)"/>
      <use xlink:href="#DejaVuSans-Oblique-78" transform="translate(161.479492 0.125)"/>
      <use xlink:href="#DejaVuSans-29" transform="translate(220.65918 0.125)"/>
     </g>
    </g>
    <g id="line2d_44">
     <path d="M 714.6 340.544062 
L 724.6 340.544062 
L 734.6 340.544062 
" style="fill: none; stroke: #2ca02c; stroke-width: 1.5; stroke-linecap: square"/>
    </g>
    <g id="text_21">
     <!-- $H_{3}(x)$ -->
     <g transform="translate(742.6 344.044062)scale(0.1 -0.1)">
      <use xlink:href="#DejaVuSans-Oblique-48" transform="translate(0 0.125)"/>
      <use xlink:href="#DejaVuSans-33" transform="translate(75.195312 -16.28125)scale(0.7)"/>
      <use xlink:href="#DejaVuSans-28" transform="translate(122.46582 0.125)"/>
      <use xlink:href="#DejaVuSans-Oblique-78" transform="translate(161.479492 0.125)"/>
      <use xlink:href="#DejaVuSans-29" transform="translate(220.65918 0.125)"/>
     </g>
    </g>
    <g id="line2d_45">
     <path d="M 714.6 355.222188 
L 724.6 355.222188 
L 734.6 355.222188 
" style="fill: none; stroke: #d62728; stroke-width: 1.5; stroke-linecap: square"/>
    </g>
    <g id="text_22">
     <!-- $H_{4}(x)$ -->
     <g transform="translate(742.6 358.722188)scale(0.1 -0.1)">
      <use xlink:href="#DejaVuSans-Oblique-48" transform="translate(0 0.125)"/>
      <use xlink:href="#DejaVuSans-34" transform="translate(75.195312 -16.28125)scale(0.7)"/>
      <use xlink:href="#DejaVuSans-28" transform="translate(122.46582 0.125)"/>
      <use xlink:href="#DejaVuSans-Oblique-78" transform="translate(161.479492 0.125)"/>
      <use xlink:href="#DejaVuSans-29" transform="translate(220.65918 0.125)"/>
     </g>
    </g>
    <g id="line2d_46">
     <path d="M 714.6 369.900313 
L 724.6 369.900313 
L 734.6 369.900313 
" style="fill: none; stroke: #9467bd; stroke-width: 1.5; stroke-linecap: square"/>
    </g>
    <g id="text_23">
     <!-- $H_{5}(x)$ -->
     <g transform="translate(742.6 373.400313)scale(0.1 -0.1)">
      <use xlink:href="#DejaVuSans-Oblique-48" transform="translate(0 0.125)"/>
      <use xlink:href="#DejaVuSans-35" transform="translate(75.195312 -16.28125)scale(0.7)"/>
      <use xlink:href="#DejaVuSans-28" transform="translate(122.46582 0.125)"/>
      <use xlink:href="#DejaVuSans-Oblique-78" transform="translate(161.479492 0.125)"/>
      <use xlink:href="#DejaVuSans-29" transform="translate(220.65918 0.125)"/>
     </g>
    </g>
   </g>
  </g>
 </g>
 <defs>
  <clipPath id="pdfee1e8a38">
   <rect x="108" y="51.84" width="669.6" height="332.64"/>
  </clipPath>
 </defs>
</svg>
